/* XPM */
static char *_ad17261c8ad4f36eef4b89fbb4eaa5fapoiVptc2BjTgPE1[] = {
/* columns rows colors chars-per-pixel */
"100 40 4 1 ",
"  c None",
". c #000000",
"X c #FC0000",
"o c #FFFFFF",
/* pixels */
"          ................................................................................          ",
"         ..................................................................................         ",
"        ..XXXXXXXXXXXXXXXXXXXXXXXXXXXXXXXXXXXXXXXXXXXXXXXXXXXXXXXXXXXXXXXXXXXXXXXXXXXXXXXX..        ",
"       ..XXXXXXXXXXXXXXXXXXXXXXXXXXXXXXXXXXXXXXXXXXXXXXXXXXXXXXXXXXXXXXXXXXXXXXXXXXXXXXXXXX..       ",
"      ..XXXXXXXXXXXXXXXXXXXXXXXXXXXXXXXXXXXXXXXXXXXXXXXXXXXXXXXXXXXXXXXXXXXXXXXXXXXXXXXXXXXX..      ",
"     ..XXXXXXXXXXXXXXXXXXXXXXXXXXXXXXXXXXXXXXXXXXXXXXXXXXXXXXXXXXXXXXXXXXXXXXXXXXXXXXXXXXXXXX..     ",
"    ..XXXXXXXXXXXXXXXXXXXXXXXXXXXXXXXXXXXXXXXXXXXXXXXXXXXXXXXXXXXXXXXXXXXXXXXXXXXXXXXXXXXXXXXX..    ",
"   ..XXXXXXXXXXXXXXXXXXXXXXXXXXXXXXXXXXXXXXXXXXXXXXXXXXXXXXXXXXXXXXXXXXXXXXXXXXXXXXXXXXXXXXXXXX..   ",
"  ..XXXXXXXXXXXXXXXXXXXXXXXXXXXXXXXXXXXXXXXXXXXXXXXXXXXXXXXXXXXXXXXXXXXXXXXXXXXXXXXXXXXXXXXXXXXX..  ",
" .XXXXXXXXXXXXXXXXXXXXXXXXXXXXXXXXXXXXXXXXXXXXXXXXXXXXXXXXXXXXXXXXXXXXXXXXXXXXXXXXXXXXXXXXXXXXXXX.. ",
"..XXXXXXXXXXX............XXXXX........XXXXX...XXXXXXX...XXXXX...........XX............XXXXXXXXXXXX..",
"..XXXXXXXXXXX.oooooooooo.XXXXX.oooooo.XXXXX.o.XXXXXXX.o.XXXXX.ooooooooo.XX.oooooooooo.XXXXXXXXXXXX..",
"..XXXXXXXXXXX.o........o.XXXXX........XXXXX.o.XXXXXXX.o.XXXXX...........XX.o..........XXXXXXXXXXXX..",
"..XXXXXXXXXXX.o.XXXXXX.o.XX...XXXXXXXX...XX.o.XXXXXXX.o.XX...XXXXXXXXXXXXX.o.XXXXXXXXXXXXXXXXXXXXX..",
"..XXXXXXXXXXX.o.XXXXXX.o.XX.o.XXXXXXXX.o.XX.o.XXXXXXX.o.XX.o.XXXXXXXXXXXXX.o.XXXXXXXXXXXXXXXXXXXXX..",
"..XXXXXXXXXXX.o.XXXXXX.o.XX.o.XXXXXXXX.o.XX.o.XXXXXXX.o.XX.o.XXXXXXXXXXXXX.o.XXXXXXXXXXXXXXXXXXXXX..",
"..XXXXXXXXXXX.o.XXXXXX.o.XX.o.XXXXXXXX.o.XX.o.XXXXXXX.o.XX...XXXXXXXXXXXXX.o.XXXXXXXXXXXXXXXXXXXXX..",
"..XXXXXXXXXXX.o.XXXXXX.o.XX.o.XXXXXXXX.o.XX.o.XXXXXXX.o.XXXXX.......XXXXXX.o.XXXXXXXXXXXXXXXXXXXXX..",
"..XXXXXXXXXXX.o.XXXXXX.o.XX.o.XXXXXXXX.o.XX.o.XXXXXXX.o.XXXXX.ooooo.XXXXXX.o..........XXXXXXXXXXXX..",
"..XXXXXXXXXXX.o.XXXXXX.o.XX.o.XXXXXXXX.o.XX.o.XXXXXXX.o.XXXXX.......XXXXXX.oooooooooo.XXXXXXXXXXXX..",
"..XXXXXXXXXXX.o........o.XX.o..........o.XX.o.XXXXXXX.o.XXXXXXXXXXXX...XXX.o..........XXXXXXXXXXXX..",
"..XXXXXXXXXXX.oooooooooo.XX.oooooooooooo.XX.o.XXXXXXX.o.XXXXXXXXXXXX.o.XXX.o.XXXXXXXXXXXXXXXXXXXXX..",
"..XXXXXXXXXXX.o..........XX.o..........o.XX.o.XXXXXXX.o.XXXXXXXXXXXX.o.XXX.o.XXXXXXXXXXXXXXXXXXXXX..",
"..XXXXXXXXXXX.o.XXXXXXXXXXX.o.XXXXXXXX.o.XX.o.XXXXXXX.o.XXXXXXXXXXXX.o.XXX.o.XXXXXXXXXXXXXXXXXXXXX..",
"..XXXXXXXXXXX.o.XXXXXXXXXXX.o.XXXXXXXX.o.XX.o.XXXXXXX.o.XXXXXXXXXXXX.o.XXX.o.XXXXXXXXXXXXXXXXXXXXX..",
"..XXXXXXXXXXX.o.XXXXXXXXXXX.o.XXXXXXXX.o.XX...XXXXXXX...XXXXXXXXXXXX...XXX.o.XXXXXXXXXXXXXXXXXXXXX..",
"..XXXXXXXXXXX.o.XXXXXXXXXXX.o.XXXXXXXX.o.XXXXX.......XXXXX...........XXXXX.o..........XXXXXXXXXXXX..",
"..XXXXXXXXXXX.o.XXXXXXXXXXX.o.XXXXXXXX.o.XXXXX.ooooo.XXXXX.ooooooooo.XXXXX.oooooooooo.XXXXXXXXXXXX..",
"..XXXXXXXXXXX...XXXXXXXXXXX...XXXXXXXX...XXXXX.......XXXXX...........XXXXX............XXXXXXXXXXXX..",
"..XXXXXXXXXXXXXXXXXXXXXXXXXXXXXXXXXXXXXXXXXXXXXXXXXXXXXXXXXXXXXXXXXXXXXXXXXXXXXXXXXXXXXXXXXXXXXXXX..",
" ..XXXXXXXXXXXXXXXXXXXXXXXXXXXXXXXXXXXXXXXXXXXXXXXXXXXXXXXXXXXXXXXXXXXXXXXXXXXXXXXXXXXXXXXXXXXXXX.. ",
"  ..XXXXXXXXXXXXXXXXXXXXXXXXXXXXXXXXXXXXXXXXXXXXXXXXXXXXXXXXXXXXXXXXXXXXXXXXXXXXXXXXXXXXXXXXXXXX..  ",
"   ..XXXXXXXXXXXXXXXXXXXXXXXXXXXXXXXXXXXXXXXXXXXXXXXXXXXXXXXXXXXXXXXXXXXXXXXXXXXXXXXXXXXXXXXXXX..   ",
"    ..XXXXXXXXXXXXXXXXXXXXXXXXXXXXXXXXXXXXXXXXXXXXXXXXXXXXXXXXXXXXXXXXXXXXXXXXXXXXXXXXXXXXXXXX..    ",
"     ..XXXXXXXXXXXXXXXXXXXXXXXXXXXXXXXXXXXXXXXXXXXXXXXXXXXXXXXXXXXXXXXXXXXXXXXXXXXXXXXXXXXXXX..     ",
"      ..XXXXXXXXXXXXXXXXXXXXXXXXXXXXXXXXXXXXXXXXXXXXXXXXXXXXXXXXXXXXXXXXXXXXXXXXXXXXXXXXXXXX..      ",
"       ..XXXXXXXXXXXXXXXXXXXXXXXXXXXXXXXXXXXXXXXXXXXXXXXXXXXXXXXXXXXXXXXXXXXXXXXXXXXXXXXXXX..       ",
"        ..XXXXXXXXXXXXXXXXXXXXXXXXXXXXXXXXXXXXXXXXXXXXXXXXXXXXXXXXXXXXXXXXXXXXXXXXXXXXXXXX..        ",
"         ..................................................................................         ",
"          ................................................................................          "
};
