/* XPM */
static char *chrono_xpm[] = {
/* columns rows colors chars-per-pixel */
"70 70 5 1 ",
"  c None",
". c #00000000",
"X c #F5B100",
"o c #7AFCEC",
"O c #FFFFFFFF",
/* pixels */
"                        ......................                        ",
"                        .XXXXXXXXXXXXXXXXXXXX.                        ",
"                        ..........XX..........                        ",
"                                 .XX.                                 ",
"                                 .XX.                                 ",
"                                 .XX.                                 ",
"                                 .XX.                                 ",
"                  ................XX................                  ",
"                  .XXXXXXXXXXXXXXXXXXXXXXXXXXXXXXXX.                  ",
"                  .XXXXXXXXXXXXXXXXXXXXXXXXXXXXXXXX.                  ",
"                  ..................................                  ",
"             .....OOOOOOOOOOOOOOO....ooooooooooooooo.....             ",
"             .XXX.OOOOOOOOOOOOOOO....ooooooooooooooo.XXX.             ",
"             .XXX.OOOOOOOOOOOOOOO....ooooooooooooooo.XXX.             ",
"             .....OOOOOOOOOOOOOOO....ooooooooooooooo.....             ",
"        .....OOOOOOOOOOOOOOOOOOOO....oooooooooooooooooooo.....        ",
"        .XXX.OOOOOOOOOOOOOOOOOOOO....oooooooooooooooooooo.XXX.        ",
"        .XXX.OOOOOOOOOOOOOOOOOOOO....oooooooooooooooooooo.XXX.        ",
"        .....OOOOOOOOOOOOOOOOOOOO....oooooooooooooooooooo.....        ",
"    ....OOOOO..OOOOOOOOOOOOOOOOOO....oooooooooooooooooo..OOOOO....    ",
"    .XX.OOOOO...OOOOOOOOOOOOOOOOO....ooooooooooooooooo...OOOOO.XX.    ",
"    .XX.OOOOOO...OOOOOOOOOOOOOOOOOOOOoooooooooooooooo...OOOOOO.XX.    ",
"    ....OOOOOOO...OOOOOOOOOOOOOOOOOOOooooooooooooooo...OOOOOOO....    ",
"....OOOOOOOOOOOO...OOOOOOOOOOOOOOOOOOoooooooooooooo...OOOOOOOOOOOO....",
".XX.OOOOOOOOOOOOO..OOOOOOOOOOOOOOOOOOoooooooooooooo..OOOOOOOOOOOOO.XX.",
".XX.OOOOOOOOOOOOOOOOOOOOOOOOOOOOOOOOOooooooooooooooOOOOOOOOOOOOOOO.XX.",
".XX.OOOOOOOOOOOOOOOOOOOOOOOOOOOOOOOOOooooooooooooooOOOOOOOOOOOOOOO.XX.",
".XX.OOOOOOOOOOOOOOOOOOOOOOOOOOOOO....oooooooooooOOOOOOOOOOOOOOOOOO.XX.",
".XX.OOOOOOOOOOOOOOOOOOOOOOOOOOOOO....ooooooooooOOOOOOOOOOOOOOOOOOO.XX.",
".XX.OOOOOOOOOOOOOOOOOOOOOOOOOOOOO....ooooooooooOOOOOOOOOOOOOOOOOOO.XX.",
".XX.OOOOOOOOOOOOOOOOOOOOOOOOOOOOO....oooooooOOOOOOOOOOOOOOOOOOOOOO.XX.",
".XX.OOOOOOOOOOOOOOOOOOOOOOOOOOOOO....ooooooOOOOOOOOOOOOOOOOOOOOOOO.XX.",
".XX.OOOOOOOOOOOOOOOOOOOOOOOOOOOOO....oooooOOOOOOOOOOOOOOOOOOOOOOOO.XX.",
".XX.OOOOOOOOOOOOOOOOOOOOOOOOOOOOO....ooooOOOOOOOOOOOOOOOOOOOOOOOOO.XX.",
".XX.OOOOOOOOOOOOOOOOOOOOOOOOOOOOO....ooooOOOOOOOOOOOOOOOOOOOOOOOOO.XX.",
".XX.........OOOOOOOOOOOOOOOOOOOOO....oooOOOOOOOOOOOOOOOOOO.........XX.",
".XX.........OOOOOOOOOOOOOOOOOO...OOOO...OOOOOOOOOOOOOOOOOO.........XX.",
".XX.........OOOOOOOOOOOOOOOOOO...OOOO...OOOOOOOOOOOOOOOOOO.........XX.",
".XX.........OOOOOOOOOOOOOOOOOO...OOOO...OOOOOOOOOOOOOOOOOO.........XX.",
".XX.OOOOOOOOOOOOOOOOOOOOOOOOOOOOO....OOOOOOOOOOOOOOOOOOOOOOOOOOOOO.XX.",
".XX.OOOOOOOOOOOOOOOOOOOOOOOOOOOOO....OOOOOOOOOOOOOOOOOOOOOOOOOOOOO.XX.",
".XX.OOOOOOOOOOOOOOOOOOOOOOOOOOOOO....OOOOOOOOOOOOOOOOOOOOOOOOOOOOO.XX.",
".XX.OOOOOOOOOOOOOOOOOOOOOOOOOOOOOOOOOOOOOOOOOOOOOOOOOOOOOOOOOOOOOO.XX.",
".XX.OOOOOOOOOOOOOOOOOOOOOOOOOOOOOOOOOOOOOOOOOOOOOOOOOOOOOOOOOOOOOO.XX.",
".XX.OOOOOOOOOOOOOOOOOOOOOOOOOOOOOOOOOOOOOOOOOOOOOOOOOOOOOOOOOOOOOO.XX.",
".XX.OOOOOOOOOOOOOOOOOOOOOOOOOOOOOOOOOOOOOOOOOOOOOOOOOOOOOOOOOOOOOO.XX.",
".XX.OOOOOOOOOOOOOOOOOOOOOOOOOOOOOOOOOOOOOOOOOOOOOOOOOOOOOOOOOOOOOO.XX.",
".XX.OOOOOOOOOOOOOOOOOOOOOOOOOOOOOOOOOOOOOOOOOOOOOOOOOOOOOOOOOOOOOO.XX.",
".XX.OOOOOOOOOOOOOOOOOOOOOOOOOOOOOOOOOOOOOOOOOOOOOOOOOOOOOOOOOOOOOO.XX.",
".XX.OOOOOOOOOOOOOOOOOOOOOOOOOOOOOOOOOOOOOOOOOOOOOOOOOOOOOOOOOOOOOO.XX.",
".XX.OOOOOOOOOOOOOOOOOOOOOOOOOOOOOOOOOOOOOOOOOOOOOOOOOOOOOOOOOOOOOO.XX.",
".XX.OOOOOOOOOOOOOOOOOOOOOOOOOOOOOOOOOOOOOOOOOOOOOOOOOOOOOOOOOOOOOO.XX.",
".XX.OOOOOOOOOOOOO..OOOOOOOOOOOOOOOOOOOOOOOOOOOOOOOO..OOOOOOOOOOOOO.XX.",
"....OOOOOOOOOOOO...OOOOOOOOOOOOOOOOOOOOOOOOOOOOOOOO...OOOOOOOOOOOO....",
"    ....OOOOOOO...OOOOOOOOOOOOOOOOOOOOOOOOOOOOOOOOOO...OOOOOOO....    ",
"    .XX.OOOOOO...OOOOOOOOOOOOOOOOOOOOOOOOOOOOOOOOOOOO...OOOOOO.XX.    ",
"    .XX.OOOOO...OOOOOOOOOOOOOOOOO....OOOOOOOOOOOOOOOOO...OOOOO.XX.    ",
"    ....OOOOO..OOOOOOOOOOOOOOOOOO....OOOOOOOOOOOOOOOOOO..OOOOO....    ",
"        .....OOOOOOOOOOOOOOOOOOOO....OOOOOOOOOOOOOOOOOOOO.....        ",
"        .XXX.OOOOOOOOOOOOOOOOOOOO....OOOOOOOOOOOOOOOOOOOO.XXX.        ",
"        .XXX.OOOOOOOOOOOOOOOOOOOO....OOOOOOOOOOOOOOOOOOOO.XXX.        ",
"        .....OOOOOOOOOOOOOOOOOOOO....OOOOOOOOOOOOOOOOOOOO.....        ",
"             .....OOOOOOOOOOOOOOO....OOOOOOOOOOOOOOO.....             ",
"             .XXX.OOOOOOOOOOOOOOO....OOOOOOOOOOOOOOO.XXX.             ",
"             .XXX.OOOOOOOOOOOOOOO....OOOOOOOOOOOOOOO.XXX.             ",
"             .....OOOOOOOOOOOOOOO....OOOOOOOOOOOOOOO.....             ",
"                  ..................................                  ",
"                  .XXXXXXXXXXXXXXXXXXXXXXXXXXXXXXXX.                  ",
"                  .XXXXXXXXXXXXXXXXXXXXXXXXXXXXXXXX.                  ",
"                  ..................................                  "
};
