/* XPM */
static char *_ca561e5780b415bdca72e16d3c776abFPY6GEUXbIYtdlix[] = {
/* columns rows colors chars-per-pixel */
"50 70 3 1 ",
"  c None",
". c black",
"X c white",
/* pixels */
"                                                  ",
"                                                  ",
"                                                  ",
"                                                  ",
"                                                  ",
"                                                  ",
"                                                  ",
"                                                  ",
"                                                  ",
"                                                  ",
"                                                  ",
"                                                  ",
"                                                  ",
"                                                  ",
"                                                  ",
"                                                  ",
"                                                  ",
"                                                  ",
"                                                  ",
"                                                  ",
"                     .........                    ",
"                     .XXXXXXX.                    ",
"                     .XXXXXXX.                    ",
"                     .XXXXXXX.                    ",
"                     .XXXXXXX.                    ",
"                     .XXXXXXX.                    ",
"                     .XXXXXXX.                    ",
"                     .XXXXXXX.                    ",
"                     .XXXXXXX.                    ",
"                     .........                    ",
"                                                  ",
"                                                  ",
"                                                  ",
"                                                  ",
"                                                  ",
"                                                  ",
"                                                  ",
"                                                  ",
"                                                  ",
"                                                  ",
"                     .........                    ",
"                     .XXXXXXX.                    ",
"                     .XXXXXXX.                    ",
"                     .XXXXXXX.                    ",
"                     .XXXXXXX.                    ",
"                     .XXXXXXX.                    ",
"                     .XXXXXXX.                    ",
"                     .XXXXXXX.                    ",
"                     .XXXXXXX.                    ",
"                     .........                    ",
"                                                  ",
"                                                  ",
"                                                  ",
"                                                  ",
"                                                  ",
"                                                  ",
"                                                  ",
"                                                  ",
"                                                  ",
"                                                  ",
"                                                  ",
"                                                  ",
"                                                  ",
"                                                  ",
"                                                  ",
"                                                  ",
"                                                  ",
"                                                  ",
"                                                  ",
"                                                  "
};
