/* XPM */
static char *fri_xpm[] = {
/* columns rows colors chars-per-pixel */
"70 30 4 1 ",
"  c None",
". c #000000",
"X c #FFFFFF",
"o c #FFFFFF",
/* pixels */
"....................  ..................    ....................      ",
".XXXXXXXXXXXXXXXXXX.  .XXXXXXXXXXXXXXXXX.   .XXXXXXXXXXXXXXXXXX.      ",
".X..................  .X................X.  ..........X.........      ",
".X.                   .X.              .X.           .X.              ",
".X.                   .X.              .X.           .X.              ",
".X.                   .X.              .X.           .X.              ",
".X.                   .X.              .X.           .X.              ",
".X.                   .X.              .X.           .X.              ",
".X.                   .X.              .X.           .X.              ",
".X.                   .X.              .X.           .X.              ",
".X.                   .X.              .X.           .X.              ",
".X.                   .X.             ....           .X.              ",
".X.                   .X..............XXX.           .X.              ",
".X.                   .XXXXXXXXXXXXXXXX..            .X.              ",
".X..............      .X.............X.              .X.              ",
".XXXXXXXXXXXXXX.      .X.          .X.               .X.              ",
".X..............      .X.           .X.              .X.              ",
".X.                   .X.            .X.             .X.              ",
".X.                   .X.             .X.            .X.              ",
".X.                   .X.              .X.           .X.              ",
".X.                   .X.              .X.           .X.              ",
".X.                   .X.              .X.           .X.              ",
".X.                   .X.              .X.           .X.              ",
".X.                   .X.              .X.           .X.              ",
".X.                   .X.              .X.           .X.              ",
".X.                   .X.              .X.           .X.              ",
".X.                   .X.              .X.           .X.              ",
".X.                   .X.              .X.  ..........X.........      ",
".X.                   .X.              .X.  .XXXXXXXXXXXXXXXXXX.      ",
"...                   ...              ...  ....................      "
};
