/* XPM */
static char *_6ad6c1cb0174f5d9e0fe948fe696bca220MMq6TEOkDlPzT[] = {
/* columns rows colors chars-per-pixel */
"70 70 5 1 ",
"  c None",
". c black",
"X c #F5B100",
"o c #6490FF",
"O c white",
/* pixels */
"             ............................................             ",
"             .XXXXXXXXXXXXXXXXXXXXXXXXXXXXXXXXXXXXXXXXXX.             ",
"             .XXXXXXXXXXXXXXXXXXXXXXXXXXXXXXXXXXXXXXXXXX.             ",
"             .XXXXXXXXXXXXXXXXXXXXXXXXXXXXXXXXXXXXXXXXXX.             ",
"             .XXXXXXXXXXXXXXXXXXXXXXXXXXXXXXXXXXXXXXXXXX.             ",
"             .XXXXXXXXXXXXXXXXXXXXXXXXXXXXXXXXXXXXXXXXXX.             ",
"             .XXXXXXXXXXXXXXXXXXXXXXXXXXXXXXXXXXXXXXXXXX.             ",
"             ............................................             ",
"       ......OOOOOOOOOOOOOOOOOOOOOOOOOOOOOOOOOOOOOOOOOOOO......       ",
"       .XXXX.OOOOOOOOOOOOOOOOOOOOOOOOOOOOOOOOOOOOOOOOOOOO.XXXX.       ",
"       .XXXX.OOOOOOOOOOOOOOOOOOOOOOOOOOOOOOOOOOOOOOOOOOOO.XXXX.       ",
"       .XXXX.OOOOOOOOOOOOOOOOOOOO...OOOOOOOOOOOOOOOOOOOOO.XXXX.       ",
"       .XXXX.OOOOOOOOOOOOOOOOOOOO.o.OOOOOOOOOOOOOOOOOOOOO.XXXX.       ",
"       .XXXX.OOOOOOOOOOOOOOOOOOOO.o.OOOOOOOOOOOOOOOOOOOOO.XXXX.       ",
"       .XXXX.OOOOOOOOOOOOOOOOOOOO.o.OOOOOOOOOOOOOOOOOOOOO.XXXX.       ",
"       .XXXX.OOOOOOOOOOOOOOOOOOOO.o.OOOOOOOOOOOOOOOOOOOOO.XXXX.       ",
"       ......OOOOOOOOOOOOOOOOOOOO.o.OOOOOOOOOOOOOOOOOOOOO......       ",
".......OOOOOOOOOOOOOOOOOOOOOOOOOO.o.OOOOOOOOOOOOOOOOOOOOOOOOOOO.......",
".XXXXX.OOOOOOOOOOOOOOOOOOOOOOOOOO.o.OOOOOOOOOOOOOOOOOOOOOOOOOOO.XXXXX.",
".XXXXX.OOOOOOOOOOOOOOOOOOOOOOOOOO.o.OOOOOOOOOOOOOOOOOOOOOOOOOOO.XXXXX.",
".XXXXX.OOOOOOOOOOOOOOOOOOOOOOOOOO.o.OOOOOOOOOOOOOOOOOOOOOOOOOOO.XXXXX.",
".XXXXX.OOOOOOOOOOOOOOOOOOOOOOOOOO.o.OOOOOOOOOOOOOOOOOOOOOOOOOOO.XXXXX.",
".XXXXX.OOOOOOOOOOOOOOOOOOOOOOOOOO.o.OOOOOOOOOOOOOOOOOOOOOOOOOOO.XXXXX.",
".XXXXX.OOOOOOOOOOOOOOOOOOOOOOOOOO.o.OOOOOOOOOOOOOOOOOOOOOOOOOOO.XXXXX.",
".XXXXX.OOOOOOOOOOOOOOOOOOOOOOOOOO.o.OOOOOOOOOOOOOOOOOOOOOOOOOOO.XXXXX.",
".XXXXX.OOOOOOOOOOOOOOOOOOOOOOOOOO.o.OOOOOOOOOOOOOOOOOOOOOOOOOOO.XXXXX.",
".XXXXX.OOOOOOOOOOOOOOOOOOOOOOOOOO.o.OOOOOOOOOOOOOOOOOOOOOOOOOOO.XXXXX.",
".XXXXX.OOOOOOOOOOOOOOOOOOOOOOOOOO.o.OOOOOOOOOOOOOOOOOOOOOOOOOOO.XXXXX.",
".XXXXX.OOOOOOOOOOOOOOOOOOOOOOOOOO.o.OOOOOOOOOOOOOOOOOOOOOOOOOOO.XXXXX.",
".XXXXX.OOOOOOOOOOOOOOOOOOOOOOOOOO.o.OOOOOOOOOOOOOOOOOOOOOOOOOOO.XXXXX.",
".XXXXX.OOOOOOOOOOOOOOOOOOOOOOOOOO.o.OOOOOOOOOOOOOOOOOOOOOOOOOOO.XXXXX.",
".XXXXX.OOOOOOOOOOOOOOOOOOOOOOOOOO.o.OOOOOOOOOOOOOOOOOOOOOOOOOOO.XXXXX.",
".XXXXX.OOOOOOOOOOOOOOOOOOOOOOOOOO.o.OOOOOOOOOOOOOOOOOOOOOOOOOOO.XXXXX.",
".XXXXX.OOOOOOOOOOOOOOOOOOOOOOOOOO.o.OOOOOOOOOOOOOOOOOOOOOOOOOOO.XXXXX.",
".XXXXX.OOOOOOOOOOOOOOOOOOOOOOOOOO.o.OOOOOOOOOOOOOOOOOOOOOOOOOOO.XXXXX.",
".XXXXX.OOOOOOOOOOOOOOOOOOOOOOOOOO.o.OOOOOOOOOOOOOOOOOOOOOOOOOOO.XXXXX.",
".XXXXX.OOOOOOOOOOOOOOOOOOOOOOOOOO.o.........................OOO.XXXXX.",
".XXXXX.OOOOOOOOOOOOOOOOOOOOOOOOOO.ooooooooooooooooooooooooo.OOO.XXXXX.",
".XXXXX.OOOOOOOOOOOOOOOOOOOOOOOOOO...........................OOO.XXXXX.",
".XXXXX.OOOOOOOOOOOOOOOOOOOOOOOOOOOOOOOOOOOOOOOOOOOOOOOOOOOOOOOO.XXXXX.",
".XXXXX.OOOOOOOOOOOOOOOOOOOOOOOOOOOOOOOOOOOOOOOOOOOOOOOOOOOOOOOO.XXXXX.",
".XXXXX.OOOOOOOOOOOOOOOOOOOOOOOOOOOOOOOOOOOOOOOOOOOOOOOOOOOOOOOO.XXXXX.",
".XXXXX.OOOOOOOOOOOOOOOOOOOOOOOOOOOOOOOOOOOOOOOOOOOOOOOOOOOOOOOO.XXXXX.",
".XXXXX.OOOOOOOOOOOOOOOOOOOOOOOOOOOOOOOOOOOOOOOOOOOOOOOOOOOOOOOO.XXXXX.",
".XXXXX.OOOOOOOOOOOOOOOOOOOOOOOOOOOOOOOOOOOOOOOOOOOOOOOOOOOOOOOO.XXXXX.",
".XXXXX.OOOOOOOOOOOOOOOOOOOOOOOOOOOOOOOOOOOOOOOOOOOOOOOOOOOOOOOO.XXXXX.",
".XXXXX.OOOOOOOOOOOOOOOOOOOOOOOOOOOOOOOOOOOOOOOOOOOOOOOOOOOOOOOO.XXXXX.",
".XXXXX.OOOOOOOOOOOOOOOOOOOOOOOOOOOOOOOOOOOOOOOOOOOOOOOOOOOOOOOO.XXXXX.",
".XXXXX.OOOOOOOOOOOOOOOOOOOOOOOOOOOOOOOOOOOOOOOOOOOOOOOOOOOOOOOO.XXXXX.",
".XXXXX.OOOOOOOOOOOOOOOOOOOOOOOOOOOOOOOOOOOOOOOOOOOOOOOOOOOOOOOO.XXXXX.",
".XXXXX.OOOOOOOOOOOOOOOOOOOOOOOOOOOOOOOOOOOOOOOOOOOOOOOOOOOOOOOO.XXXXX.",
".XXXXX.OOOOOOOOOOOOOOOOOOOOOOOOOOOOOOOOOOOOOOOOOOOOOOOOOOOOOOOO.XXXXX.",
".XXXXX.OOOOOOOOOOOOOOOOOOOOOOOOOOOOOOOOOOOOOOOOOOOOOOOOOOOOOOOO.XXXXX.",
".......OOOOOOOOOOOOOOOOOOOOOOOOOOOOOOOOOOOOOOOOOOOOOOOOOOOOOOOO.......",
"       ......OOOOOOOOOOOOOOOOOOOOOOOOOOOOOOOOOOOOOOOOOOOO......       ",
"       .XXXX.OOOOOOOOOOOOOOOOOOOOOOOOOOOOOOOOOOOOOOOOOOOO.XXXX.       ",
"       .XXXX.OOOOOOOOOOOOOOOOOOOOOOOOOOOOOOOOOOOOOOOOOOOO.XXXX.       ",
"       .XXXX.OOOOOOOOOOOOOOOOOOOOOOOOOOOOOOOOOOOOOOOOOOOO.XXXX.       ",
"       .XXXX.OOOOOOOOOOOOOOOOOOOOOOOOOOOOOOOOOOOOOOOOOOOO.XXXX.       ",
"       .XXXX.OOOOOOOOOOOOOOOOOOOOOOOOOOOOOOOOOOOOOOOOOOOO.XXXX.       ",
"       .XXXX.OOOOOOOOOOOOOOOOOOOOOOOOOOOOOOOOOOOOOOOOOOOO.XXXX.       ",
"       .XXXX.OOOOOOOOOOOOOOOOOOOOOOOOOOOOOOOOOOOOOOOOOOOO.XXXX.       ",
"       ......OOOOOOOOOOOOOOOOOOOOOOOOOOOOOOOOOOOOOOOOOOOO......       ",
"             ............................................             ",
"             .XXXXXXXXXXXXXXXXXXXXXXXXXXXXXXXXXXXXXXXXXX.             ",
"             .XXXXXXXXXXXXXXXXXXXXXXXXXXXXXXXXXXXXXXXXXX.             ",
"             .XXXXXXXXXXXXXXXXXXXXXXXXXXXXXXXXXXXXXXXXXX.             ",
"             .XXXXXXXXXXXXXXXXXXXXXXXXXXXXXXXXXXXXXXXXXX.             ",
"             .XXXXXXXXXXXXXXXXXXXXXXXXXXXXXXXXXXXXXXXXXX.             ",
"             ............................................             "
};
