/* XPM */
static char *d9576c4d72f144bce54cbdfc82fcffc6LxWUu3Ex9zyOMAqd[] = {
/* columns rows colors chars-per-pixel */
"70 70 5 1 ",
"  c None",
". c black",
"X c #2F2200",
"o c #F5B100",
"O c white",
/* pixels */
"......................................................................",
".XXXXXXXXXXXXXXXXXXXXXXXXXXXXXXXXXXXXXXXXXXXXXXXXXXXXXXXXXXXXXXXXXXXX.",
".XXXXXXXXXXXXXXXXXXXXXXXXXXXXXXXXXXXXXXXXXXXXXXXXXXXXXXXXXXXXXXXXXXXX.",
".XXXXXXXXXXXXXXXXXXXXXXXXXXXXXXXXXXXXXXXXXXXXXXXXXXXXXXXXXXXXXXXXXXXX.",
".XXXXXXXXXXXXXXXXXXXXXXXXXXXXXXXXXXXXXXXXXXXXXXXXXXXXXXXXXXXXXXXXXXXX.",
".XXXXXXXXXXXXXXXXXXXXXXXXXXXXXXXXXXXXXXXXXXXXXXXXXXXXXXXXXXXXXXXXXXXX.",
"......................................................................",
"           .XXX.OOOOOOOOOOOOOOOOOOOOOOOOOOOOOOOOOOOOOO.XXX.           ",
"           .XXX.OOOOOOOOOOOOOOOOOOOOOOOOOOOOOOOOOOOOOO.XXX.           ",
"           .XXX.OOOOOOOOOOOOOOOOOOOOOOOOOOOOOOOOOOOOOO.XXX.           ",
"           .XXX.OOOOOOOOOOOOOOOOOOOOOOOOOOOOOOOOOOOOOO.XXX.           ",
"           .XXX.OOOOOOOOOOOOOOOOOOOOOOOOOOOOOOOOOOOOOO.XXX.           ",
"           .XXX.OOOOOOOOOOOOOOOOOOOOOOOOOOOOOOOOOOOOOO.XXX.           ",
"           .XXX.OOOOOOOOOOOOOOOOOOOOOOOOOOOOOOOOOOOOOO.XXX.           ",
"           .XXX.OOOOOOOOOOOOOOOOOOOOOOOOOOOOOOOOOOOOOO.XXX.           ",
"           .XXX.OOOOOOOOOOOOOOOOOOOOOOOOOOOOOOOOOOOOOO.XXX.           ",
"           .XXX.OOOOOOOOOOOOOOOOOOOOOOOOOOOOOOOOOOOOOO.XXX.           ",
"           .XXX.OOOOOOOOOOOOOOOOOOOOOOOOOOOOOOOOOOOOOO.XXX.           ",
"           .XXX.OOOOOOOOOOOOOOOOOOOOOOOOOOOOOOOOOOOOOO.XXX.           ",
"           .....OOOOOOOOOOOOOOOOOOOOOOOOOOOOOOOOOOOOOO.....           ",
"                .....OOO......................OOO.....                ",
"                .XXX.OOO..oooooooooooooooooo..OOO.XXX.                ",
"                .XXX.OOOO..oooooooooooooooo..OOOO.XXX.                ",
"                .XXX.OOOOO..oooooooooooooo..OOOOO.XXX.                ",
"                .....OOOOOO...oooooooooo...OOOOOO.....                ",
"                     .....OOO...oooooo...OOO.....                     ",
"                     .XXX.OOOOO...oo...OOOOO.XXX.                     ",
"                     .XXX.OOOOOOO.oo.OOOOOOO.XXX.                     ",
"                     .XXX.OOOOOOOO..OOOOOOOO.XXX.                     ",
"                     .....OOOOOOOOOOOOOOOOOO.....                     ",
"                          .....OOOOOOOO.....                          ",
"                          .XXX.OOOOOOOO.XXX.                          ",
"                          .XXX.OOOOOOOO.XXX.                          ",
"                          .XXX.OOOOOOOO.XXX.                          ",
"                          .XXX.OOOOOOOO.XXX.                          ",
"                          .XXX.OOOOOOOO.XXX.                          ",
"                          .XXX.OOOOOOOO.XXX.                          ",
"                          .XXX.OOOOOOOO.XXX.                          ",
"                          .....OOOOOOOO.....                          ",
"                     .....OOOOOOO....OOOOOOO.....                     ",
"                     .XXX.OOOOOOO.oo.OOOOOOO.XXX.                     ",
"                     .XXX.OOOOOOO....OOOOOOO.XXX.                     ",
"                     .XXX.OOOOOOOOOOOOOOOOOO.XXX.                     ",
"                     .....OOOOOOOOOOOOOOOOOO.....                     ",
"                .....OOOOOOOOOOOOOOOOOOOOOOOOOOOO.....                ",
"                .XXX.OOOOOOOOOOOO....OOOOOOOOOOOO.XXX.                ",
"                .XXX.OOOOOOOOOOOO.oo.OOOOOOOOOOOO.XXX.                ",
"                .XXX.OOOOOOOOOO..oooo..OOOOOOOOOO.XXX.                ",
"                .....OOOOO.....oooooooo.....OOOOO.....                ",
"           .....OOOOOOOOO.oooooooooooooooooo.OOOOOOOOO.....           ",
"           .XXX.OOOOOOOOO.oooooooooooooooooo.OOOOOOOOO.XXX.           ",
"           .XXX.OOOOOOO...oooooooooooooooooo...OOOOOOO.XXX.           ",
"           .XXX.OOOOOO.oooooooooooooooooooooooo.OOOOOO.XXX.           ",
"           .XXX.OOOOOO.oooooooooooooooooooooooo.OOOOOO.XXX.           ",
"           .XXX.OOOOO.oooooooooooooooooooooooooo.OOOOO.XXX.           ",
"           .XXX.OOOOO.oooooooooooooooooooooooooo.OOOOO.XXX.           ",
"           .XXX.OOOOO.oooooooooooooooooooooooooo.OOOOO.XXX.           ",
"           .XXX.OOOOO.oooooooooooooooooooooooooo.OOOOO.XXX.           ",
"           .XXX......oooooooooooooooooooooooooooo......XXX.           ",
"           .XXX.oooooooooooooooooooooooooooooooooooooo.XXX.           ",
"           .XXX.oooooooooooooooooooooooooooooooooooooo.XXX.           ",
"           .XXX.oooooooooooooooooooooooooooooooooooooo.XXX.           ",
"           .XXX.oooooooooooooooooooooooooooooooooooooo.XXX.           ",
"......................................................................",
".XXXXXXXXXXXXXXXXXXXXXXXXXXXXXXXXXXXXXXXXXXXXXXXXXXXXXXXXXXXXXXXXXXXX.",
".XXXXXXXXXXXXXXXXXXXXXXXXXXXXXXXXXXXXXXXXXXXXXXXXXXXXXXXXXXXXXXXXXXXX.",
".XXXXXXXXXXXXXXXXXXXXXXXXXXXXXXXXXXXXXXXXXXXXXXXXXXXXXXXXXXXXXXXXXXXX.",
".XXXXXXXXXXXXXXXXXXXXXXXXXXXXXXXXXXXXXXXXXXXXXXXXXXXXXXXXXXXXXXXXXXXX.",
".XXXXXXXXXXXXXXXXXXXXXXXXXXXXXXXXXXXXXXXXXXXXXXXXXXXXXXXXXXXXXXXXXXXX.",
"......................................................................"
};
