/* XPM */
static char *mon_xpm[] = {
/* columns rows colors chars-per-pixel */
"70 30 3 1 ",
"  c None",
". c #000000",
"X c #FFFFFF",
/* pixels */
"......        ......     ..............     ....              ...     ",
".XXXX.        .XXXX.     .XXXXXXXXXXXX.     .XX..             .X.     ",
".XXXXX.      .XXXXX.     ..............     .X.X..            .X.     ",
".X..XX.      .XX..X.  ...              ...  .X..X.            .X.     ",
".X. .XX.    .XX. .X.  .X.              .X.  .X..X..           .X.     ",
".X. .XX.    .XX. .X.  .X.              .X.  .X...X..          .X.     ",
".X.  .XX.  .XX.  .X.  .X.              .X.  .X. .XX.          .X.     ",
".X.  .XX....XX.  .X.  .X.              .X.  .X. .XX..         .X.     ",
".X.   .XX..XX.   .X.  .X.              .X.  .X.  .XX.         .X.     ",
".X.   .XXXXXX.   .X.  .X.              .X.  .X.  ..X.         .X.     ",
".X.    .XXXX.    .X.  .X.              .X.  .X.   .XX.        .X.     ",
".X.    .XXXX.    .X.  .X.              .X.  .X.   ..X.        .X.     ",
".X.     .XX.     .X.  .X.              .X.  .X.    .X..       .X.     ",
".X.     .XX.     .X.  .X.              .X.  .X.    .XX.       .X.     ",
".X.      ..      .X.  .X.              .X.  .X.     .X..      .X.     ",
".X.              .X.  .X.              .X.  .X.     ..X.      .X.     ",
".X.              .X.  .X.              .X.  .X.      .X..     .X.     ",
".X.              .X.  .X.              .X.  .X.      ..X.     .X.     ",
".X.              .X.  .X.              .X.  .X.       .XX.    .X.     ",
".X.              .X.  .X.              .X.  .X.        .X..   .X.     ",
".X.              .X.  .X.              .X.  .X.        ..X..  .X.     ",
".X.              .X.  .X.              .X.  .X.         .XX.  .X.     ",
".X.              .X.  .X.              .X.  .X.         ..XX. .X.     ",
".X.              .X.  .X.              .X.  .X.          ..X...X.     ",
".X.              .X.  .X.              .X.  .X.           .XX..X.     ",
".X.              .X.  .X.              .X.  .X.           ..XXXX.     ",
".X.              .X.  ...              ...  .X.            ..XXX.     ",
".X.              .X.    ................    .X.             ..XX.     ",
".X.              .X.    .XXXXXXXXXXXXXX.    .X.              .XX.     ",
"...              ...    ................    ...              ....     "
};
