/* XPM */
static char *_1457a3e969e40eed0d30a2bc516d5e9BSHz50AJi5rsUS3E[] = {
/* columns rows colors chars-per-pixel */
"50 70 3 1 ",
"  c None",
". c black",
"X c white",
/* pixels */
"                         .                        ",
"                        ...                       ",
"                       ..X..                      ",
"                      ..XXX..                     ",
"                     ..XXXXX..                    ",
"                     .XXXXXXX.                    ",
"                     .XXXXXXX.                    ",
"                     .XXXXXXX.                    ",
"                     .XXXXXXX.                    ",
"                     .XXXXXXX.                    ",
"                     .XXXXXXX.                    ",
"                     .XXXXXXX.                    ",
"                     .XXXXXXX.                    ",
"                     .XXXXXXX.                    ",
"                     .XXXXXXX.                    ",
"                     .XXXXXXX.                    ",
"                     .XXXXXXX.                    ",
"                     .XXXXXXX.                    ",
"                     .XXXXXXX.                    ",
"                     .XXXXXXX.                    ",
"                     .XXXXXXX.                    ",
"                     .XXXXXXX.                    ",
"                     .XXXXXXX.                    ",
"                     .XXXXXXX.                    ",
"                     .XXXXXXX.                    ",
"                     .XXXXXXX.                    ",
"                     .XXXXXXX.                    ",
"                     .XXXXXXX.                    ",
"                     .XXXXXXX.                    ",
"                     .XXXXXXX.                    ",
"                     ..XXXXX..                    ",
"                      ..XXX..                     ",
"                       ..X..                      ",
"                        ...                       ",
"                                                  ",
"                                                  ",
"                        ...                       ",
"                       ..X..                      ",
"                      ..XXX..                     ",
"                     ..XXXXX..                    ",
"                     .XXXXXXX.                    ",
"                     .XXXXXXX.                    ",
"                     .XXXXXXX.                    ",
"                     .XXXXXXX.                    ",
"                     .XXXXXXX.                    ",
"                     .XXXXXXX.                    ",
"                     .XXXXXXX.                    ",
"                     .XXXXXXX.                    ",
"                     .XXXXXXX.                    ",
"                     .XXXXXXX.                    ",
"                     .XXXXXXX.                    ",
"                     .XXXXXXX.                    ",
"                     .XXXXXXX.                    ",
"                     .XXXXXXX.                    ",
"                     .XXXXXXX.                    ",
"                     .XXXXXXX.                    ",
"                     .XXXXXXX.                    ",
"                     .XXXXXXX.                    ",
"                     .XXXXXXX.                    ",
"                     .XXXXXXX.                    ",
"                     .XXXXXXX.                    ",
"                     .XXXXXXX.                    ",
"                     .XXXXXXX.                    ",
"                     .XXXXXXX.                    ",
"                     .XXXXXXX.                    ",
"                     ..XXXXX..                    ",
"                      ..XXX..                     ",
"                       ..X..                      ",
"                        ...                       ",
"                         .                        "
};
