/* XPM */
static char *abaaacba94cb4701d264096576878082cHHfzhQR5wgGiard[] = {
/* columns rows colors chars-per-pixel */
"50 70 3 1 ",
"  c None",
". c black",
"X c white",
/* pixels */
"           ............................           ",
"            .XXXXXXXXXXXXXXXXXXXXXXXX.            ",
"             .XXXXXXXXXXXXXXXXXXXXXX.             ",
"              .XXXXXXXXXXXXXXXXXXXX.              ",
"           .   .XXXXXXXXXXXXXXXXXX.   .           ",
"           ..   .XXXXXXXXXXXXXXXX.   ..           ",
"           .X.   .XXXXXXXXXXXXXX.   .X.           ",
"           .XX.   .XXXXXXXXXXXX.   .XX.           ",
"           .XXX.   ............   .XXX.           ",
"           .XXXX.                .XXXX.           ",
"           .XXXXX.              .XXXXX.           ",
"           .XXXXX.              .XXXXX.           ",
"           .XXXXX.              .XXXXX.           ",
"           .XXXXX.              .XXXXX.           ",
"           .XXXXX.              .XXXXX.           ",
"           .XXXXX.              .XXXXX.           ",
"           .XXXXX.              .XXXXX.           ",
"           .XXXXX.              .XXXXX.           ",
"           .XXXXX.              .XXXXX.           ",
"           .XXXXX.              .XXXXX.           ",
"           .XXXXX.              .XXXXX.           ",
"           .XXXXX.              .XXXXX.           ",
"           .XXXXX.              .XXXXX.           ",
"           .XXXXX.              .XXXXX.           ",
"           .XXXXX.              .XXXXX.           ",
"           .XXXXX.              .XXXXX.           ",
"           .XXXXX.              .XXXXX.           ",
"           .XXXXX.              .XXXXX.           ",
"            .XXX.                .XXX.            ",
"             .X.  ..............  .X.             ",
"              .  .XXXXXXXXXXXXXX.  .              ",
"                .XXXXXXXXXXXXXXXX.                ",
"               .XXXXXXXXXXXXXXXXXX.               ",
"                .XXXXXXXXXXXXXXXX.                ",
"                 .XXXXXXXXXXXXXX.  .              ",
"                  ..............  .X.             ",
"                                 .XXX.            ",
"                                .XXXXX.           ",
"                                .XXXXX.           ",
"                                .XXXXX.           ",
"                                .XXXXX.           ",
"                                .XXXXX.           ",
"                                .XXXXX.           ",
"                                .XXXXX.           ",
"                                .XXXXX.           ",
"                                .XXXXX.           ",
"                                .XXXXX.           ",
"                                .XXXXX.           ",
"                                .XXXXX.           ",
"                                .XXXXX.           ",
"                                .XXXXX.           ",
"                                .XXXXX.           ",
"                                .XXXXX.           ",
"                                .XXXXX.           ",
"                                .XXXXX.           ",
"                                .XXXXX.           ",
"                                .XXXXX.           ",
"                                .XXXXX.           ",
"                                .XXXXX.           ",
"                                .XXXXX.           ",
"                                 .XXXX.           ",
"                   ............   .XXX.           ",
"                  .XXXXXXXXXXXX.   .XX.           ",
"                 .XXXXXXXXXXXXXX.   .X.           ",
"                .XXXXXXXXXXXXXXXX.   ..           ",
"               .XXXXXXXXXXXXXXXXXX.   .           ",
"              .XXXXXXXXXXXXXXXXXXXX.              ",
"             .XXXXXXXXXXXXXXXXXXXXXX.             ",
"            .XXXXXXXXXXXXXXXXXXXXXXXX.            ",
"           ............................           "
};
