/* XPM */
static char *a2f7ec3cf010428dc81c587d9be5df112AA13hX5lk4mfeIe[] = {
/* columns rows colors chars-per-pixel */
"50 70 3 1 ",
"  c None",
". c black",
"X c white",
/* pixels */
"           ............................           ",
"            .XXXXXXXXXXXXXXXXXXXXXXXX.            ",
"             .XXXXXXXXXXXXXXXXXXXXXX.             ",
"              .XXXXXXXXXXXXXXXXXXXX.              ",
"               .XXXXXXXXXXXXXXXXXX.   .           ",
"                .XXXXXXXXXXXXXXXX.   ..           ",
"                 .XXXXXXXXXXXXXX.   .X.           ",
"                  .XXXXXXXXXXXX.   .XX.           ",
"                   ............   .XXX.           ",
"                                 .XXXX.           ",
"                                .XXXXX.           ",
"                                .XXXXX.           ",
"                                .XXXXX.           ",
"                                .XXXXX.           ",
"                                .XXXXX.           ",
"                                .XXXXX.           ",
"                                .XXXXX.           ",
"                                .XXXXX.           ",
"                                .XXXXX.           ",
"                                .XXXXX.           ",
"                                .XXXXX.           ",
"                                .XXXXX.           ",
"                                .XXXXX.           ",
"                                .XXXXX.           ",
"                                .XXXXX.           ",
"                                .XXXXX.           ",
"                                .XXXXX.           ",
"                                .XXXXX.           ",
"                                 .XXX.            ",
"                 ..............   .X.             ",
"                .XXXXXXXXXXXXXX.   .              ",
"               .XXXXXXXXXXXXXXXX.                 ",
"              .XXXXXXXXXXXXXXXXXX.                ",
"               .XXXXXXXXXXXXXXXX.                 ",
"                .XXXXXXXXXXXXXX.                  ",
"                 ..............                   ",
"              .                                   ",
"             .X.                                  ",
"            .XXX.                                 ",
"           .XXXXX.                                ",
"           .XXXXX.                                ",
"           .XXXXX.                                ",
"           .XXXXX.                                ",
"           .XXXXX.                                ",
"           .XXXXX.                                ",
"           .XXXXX.                                ",
"           .XXXXX.                                ",
"           .XXXXX.                                ",
"           .XXXXX.                                ",
"           .XXXXX.                                ",
"           .XXXXX.                                ",
"           .XXXXX.                                ",
"           .XXXXX.                                ",
"           .XXXXX.                                ",
"           .XXXXX.                                ",
"           .XXXXX.                                ",
"           .XXXXX.                                ",
"           .XXXXX.                                ",
"           .XXXXX.                                ",
"           .XXXXX.                                ",
"           .XXXX.                                 ",
"           .XXX.   ............                   ",
"           .XX.   .XXXXXXXXXXXX.                  ",
"           .X.   .XXXXXXXXXXXXXX.                 ",
"           ..   .XXXXXXXXXXXXXXXX.                ",
"           .   .XXXXXXXXXXXXXXXXXX.               ",
"              .XXXXXXXXXXXXXXXXXXXX.              ",
"             .XXXXXXXXXXXXXXXXXXXXXX.             ",
"            .XXXXXXXXXXXXXXXXXXXXXXXX.            ",
"           ............................           "
};
