/* XPM */
static char *_671e57d8dfe4353a0b79795c85f81902cDiVxLpYllCUlHi[] = {
/* columns rows colors chars-per-pixel */
"50 70 3 1 ",
"  c None",
". c black",
"X c white",
/* pixels */
"           ............................           ",
"            .XXXXXXXXXXXXXXXXXXXXXXXX.            ",
"             .XXXXXXXXXXXXXXXXXXXXXX.             ",
"              .XXXXXXXXXXXXXXXXXXXX.              ",
"               .XXXXXXXXXXXXXXXXXX.   .           ",
"                .XXXXXXXXXXXXXXXX.   ..           ",
"                 .XXXXXXXXXXXXXX.   .X.           ",
"                  .XXXXXXXXXXXX.   .XX.           ",
"                   ............   .XXX.           ",
"                                 .XXXX.           ",
"                                .XXXXX.           ",
"                                .XXXXX.           ",
"                                .XXXXX.           ",
"                                .XXXXX.           ",
"                                .XXXXX.           ",
"                                .XXXXX.           ",
"                                .XXXXX.           ",
"                                .XXXXX.           ",
"                                .XXXXX.           ",
"                                .XXXXX.           ",
"                                .XXXXX.           ",
"                                .XXXXX.           ",
"                                .XXXXX.           ",
"                                .XXXXX.           ",
"                                .XXXXX.           ",
"                                .XXXXX.           ",
"                                .XXXXX.           ",
"                                .XXXXX.           ",
"                                 .XXX.            ",
"                                  .X.             ",
"                                   .              ",
"                                                  ",
"                                                  ",
"                                                  ",
"                                   .              ",
"                                  .X.             ",
"                                 .XXX.            ",
"                                .XXXXX.           ",
"                                .XXXXX.           ",
"                                .XXXXX.           ",
"                                .XXXXX.           ",
"                                .XXXXX.           ",
"                                .XXXXX.           ",
"                                .XXXXX.           ",
"                                .XXXXX.           ",
"                                .XXXXX.           ",
"                                .XXXXX.           ",
"                                .XXXXX.           ",
"                                .XXXXX.           ",
"                                .XXXXX.           ",
"                                .XXXXX.           ",
"                                .XXXXX.           ",
"                                .XXXXX.           ",
"                                .XXXXX.           ",
"                                .XXXXX.           ",
"                                .XXXXX.           ",
"                                .XXXXX.           ",
"                                .XXXXX.           ",
"                                .XXXXX.           ",
"                                .XXXXX.           ",
"                                 .XXXX.           ",
"                                  .XXX.           ",
"                                   .XX.           ",
"                                    .X.           ",
"                                     ..           ",
"                                      .           ",
"                                                  ",
"                                                  ",
"                                                  ",
"                                                  "
};
