/* XPM */
static char *digit_0_xpm[] = {
/* columns rows colors chars-per-pixel */
"50 70 3 1 ",
"  c None",
". c #00000000",
"X c #FFFFFFFF",
/* pixels */
"       ..................................         ",
"        .XXXXXXXXXXXXXXXXXXXXXXXXXXXXXX.          ",
"         .XXXXXXXXXXXXXXXXXXXXXXXXXXXX.           ",
"          .XXXXXXXXXXXXXXXXXXXXXXXXXX.            ",
"       .   .XXXXXXXXXXXXXXXXXXXXXXXX.   .         ",
"       ..   .XXXXXXXXXXXXXXXXXXXXXX.   ..         ",
"       .X.   .XXXXXXXXXXXXXXXXXXXX.   .X.         ",
"       .XX.   .XXXXXXXXXXXXXXXXXX.   .XX.         ",
"       .XXX.   .XXXXXXXXXXXXXXXX.   .XXX.         ",
"       .XXXX.   .XXXXXXXXXXXXXX.   .XXXX.         ",
"       .XXXXX.   ..............   .XXXXX.         ",
"       .XXXXXX.                  .XXXXXX.         ",
"       .XXXXXX.                  .XXXXXX.         ",
"       .XXXXXX.                  .XXXXXX.         ",
"       .XXXXXX.                  .XXXXXX.         ",
"       .XXXXXX.                  .XXXXXX.         ",
"       .XXXXXX.                  .XXXXXX.         ",
"       .XXXXXX.                  .XXXXXX.         ",
"       .XXXXXX.                  .XXXXXX.         ",
"       .XXXXXX.                  .XXXXXX.         ",
"       .XXXXXX.                  .XXXXXX.         ",
"       .XXXXXX.                  .XXXXXX.         ",
"       .XXXXXX.                  .XXXXXX.         ",
"       .XXXXXX.                  .XXXXXX.         ",
"       .XXXXXX.                  .XXXXXX.         ",
"       .XXXXXX.                  .XXXXXX.         ",
"       .XXXXXX.                  .XXXXXX.         ",
"       .XXXXXX.                  .XXXXXX.         ",
"       .XXXXXX.                  .XXXXXX.         ",
"       .XXXXXX.                  .XXXXXX.         ",
"       .XXXXXX.                  .XXXXXX.         ",
"       .XXXXXX.                  .XXXXXX.         ",
"       .XXXXXX.                  .XXXXXX.         ",
"       .XXXXXX.                  .XXXXXX.         ",
"       .XXXXXX.                  .XXXXXX.         ",
"       .XXXXXX.                  .XXXXXX.         ",
"       .XXXXXX.                  .XXXXXX.         ",
"       .XXXXXX.                  .XXXXXX.         ",
"       .XXXXXX.                  .XXXXXX.         ",
"       .XXXXXX.                  .XXXXXX.         ",
"       .XXXXXX.                  .XXXXXX.         ",
"       .XXXXXX.                  .XXXXXX.         ",
"       .XXXXXX.                  .XXXXXX.         ",
"       .XXXXXX.                  .XXXXXX.         ",
"       .XXXXXX.                  .XXXXXX.         ",
"       .XXXXXX.                  .XXXXXX.         ",
"       .XXXXXX.                  .XXXXXX.         ",
"       .XXXXXX.                  .XXXXXX.         ",
"       .XXXXXX.                  .XXXXXX.         ",
"       .XXXXXX.                  .XXXXXX.         ",
"       .XXXXXX.                  .XXXXXX.         ",
"       .XXXXXX.                  .XXXXXX.         ",
"       .XXXXXX.                  .XXXXXX.         ",
"       .XXXXXX.                  .XXXXXX.         ",
"       .XXXXXX.                  .XXXXXX.         ",
"       .XXXXXX.                  .XXXXXX.         ",
"       .XXXXXX.                  .XXXXXX.         ",
"       .XXXXXX.                  .XXXXXX.         ",
"       .XXXXXX.                  .XXXXXX.         ",
"       .XXXXX.   ..............   .XXXXX.         ",
"       .XXXX.   .XXXXXXXXXXXXXX.   .XXXX.         ",
"       .XXX.   .XXXXXXXXXXXXXXXX.   .XXX.         ",
"       .XX.   .XXXXXXXXXXXXXXXXXX.   .XX.         ",
"       .X.   .XXXXXXXXXXXXXXXXXXXX.   .X.         ",
"       ..   .XXXXXXXXXXXXXXXXXXXXXX.   ..         ",
"       .   .XXXXXXXXXXXXXXXXXXXXXXXX.   .         ",
"          .XXXXXXXXXXXXXXXXXXXXXXXXXX.            ",
"         .XXXXXXXXXXXXXXXXXXXXXXXXXXXX.           ",
"        .XXXXXXXXXXXXXXXXXXXXXXXXXXXXXX.          ",
"       ..................................         "
};
