/* XPM */
static char *reset_xpm[] = {
/* columns rows colors chars-per-pixel */
"100 40 5 1 ",
"  c None",
". c #00000000",
"X c #FC0000",
"o c #FC0000",
"O c #FFFFFFFF",
/* pixels */
"          ................................................................................          ",
"         ..................................................................................         ",
"        ..XXXXXXXXXXXXXXXXXXXXXXXXXXXXXXXXXXXXXXXXXXXXXXXXXXXXXXXXXXXXXXXXXXXXXXXXXXXXXXXX..        ",
"       ..XXXXXXXXXXXXXXXXXXXXXXXXXXXXXXXXXXXXXXXXXXXXXXXXXXXXXXXXXXXXXXXXXXXXXXXXXXXXXXXXXX..       ",
"      ..XXXXXXXXXXXXXXXXXXXXXXXXXXXXXXXXXXXXXXXXXXXXXXXXXXXXXXXXXXXXXXXXXXXXXXXXXXXXXXXXXXXX..      ",
"     ..XXXXXXXXXXXXXXXXXXXXXXXXXXXXXXXXXXXXXXXXXXXXXXXXXXXXXXXXXXXXXXXXXXXXXXXXXXXXXXXXXXXXXX..     ",
"    ..XXXXXXXXXXXXXXXXXXXXXXXXXXXXXXXXXXXXXXXXXXXXXXXXXXXXXXXXXXXXXXXXXXXXXXXXXXXXXXXXXXXXXXXX..    ",
"   ..XXXXXXXXXXXXXXXXXXXXXXXXXXXXXXXXXXXXXXXXXXXXXXXXXXXXXXXXXXXXXXXXXXXXXXXXXXXXXXXXXXXXXXXXXX..   ",
"  ..XXXXXXXXXXXXXXXXXXXXXXXXXXXXXXXXXXXXXXXXXXXXXXXXXXXXXXXXXXXXXXXXXXXXXXXXXXXXXXXXXXXXXXXXXXXX..  ",
" .XXXXXXXXXXXXXXXXXXXXXXXXXXXXXXXXXXXXXXXXXXXXXXXXXXXXXXXXXXXXXXXXXXXXXXXXXXXXXXXXXXXXXXXXXXXXXXX.. ",
"..XXXXXXXXXXX...........XX............XXXXX...........XX............XX.................XXXXXXXXXXX..",
"..XXXXXXXXXXX.OOOOOOOOO.XX.OOOOOOOOOO.XXXXX.OOOOOOOOO.XX.OOOOOOOOOO.XX.OOOOOOOOOOOOOOO.XXXXXXXXXXX..",
"..XXXXXXXXXXX.O.......O.XX.O..........XXXXX...........XX.O..........XX........O........XXXXXXXXXXX..",
"..XXXXXXXXXXX.O.XXXXX.O.XX.O.XXXXXXXXXXX...XXXXXXXXXXXXX.O.XXXXXXXXXXXXXXXXXX.O.XXXXXXXXXXXXXXXXXX..",
"..XXXXXXXXXXX.O.XXXXX.O.XX.O.XXXXXXXXXXX.O.XXXXXXXXXXXXX.O.XXXXXXXXXXXXXXXXXX.O.XXXXXXXXXXXXXXXXXX..",
"..XXXXXXXXXXX.O.XXXXX...XX.O.XXXXXXXXXXX.O.XXXXXXXXXXXXX.O.XXXXXXXXXXXXXXXXXX.O.XXXXXXXXXXXXXXXXXX..",
"..XXXXXXXXXXX.O.XXXXXXXXXX.O.XXXXXXXXXXX.O.XXXXXXXXXXXXX.O.XXXXXXXXXXXXXXXXXX.O.XXXXXXXXXXXXXXXXXX..",
"..XXXXXXXXXXX.O......XXXXX.O.XXXXXXXXXXX.O.XXXXXXXXXXXXX.O.XXXXXXXXXXXXXXXXXX.O.XXXXXXXXXXXXXXXXXX..",
"..XXXXXXXXXXX.OOOOOO.XXXXX.O..........XX...XXXXXXXXXXXXX.O..........XXXXXXXXX.O.XXXXXXXXXXXXXXXXXX..",
"..XXXXXXXXXXX.O......XXXXX.OOOOOOOOOO.XXXXX........XXXXX.OOOOOOOOOO.XXXXXXXXX.O.XXXXXXXXXXXXXXXXXX..",
"..XXXXXXXXXXX.O.XXXXX...XX.O..........XXXXX.OOOOOO.XXXXX.O..........XXXXXXXXX.O.XXXXXXXXXXXXXXXXXX..",
"..XXXXXXXXXXX.O.XXXXX.O.XX.O.XXXXXXXXXXXXXX........XXXXX.O.XXXXXXXXXXXXXXXXXX.O.XXXXXXXXXXXXXXXXXX..",
"..XXXXXXXXXXX.O.XXXXX.O.XX.O.XXXXXXXXXXXXXXXXXXXXXX...XX.O.XXXXXXXXXXXXXXXXXX.O.XXXXXXXXXXXXXXXXXX..",
"..XXXXXXXXXXX.O.XXXXX.O.XX.O.XXXXXXXXXXXXXXXXXXXXXX.O.XX.O.XXXXXXXXXXXXXXXXXX.O.XXXXXXXXXXXXXXXXXX..",
"..XXXXXXXXXXX.O.XXXXX.O.XX.O.XXXXXXXXXXXXXXXXXXXXXX.O.XX.O.XXXXXXXXXXXXXXXXXX.O.XXXXXXXXXXXXXXXXXX..",
"..XXXXXXXXXXX.O.XXXXX.O.XX.O.XXXXXXXXXXXXXXXXXXXXXX...XX.O.XXXXXXXXXXXXXXXXXX.O.XXXXXXXXXXXXXXXXXX..",
"..XXXXXXXXXXX.O.XXXXX.O.XX.O..........XX...........XXXXX.O..........XXXXXXXXX.O.XXXXXXXXXXXXXXXXXX..",
"..XXXXXXXXXXX.O.XXXXX.O.XX.OOOOOOOOOO.XX.OOOOOOOOO.XXXXX.OOOOOOOOOO.XXXXXXXXX.O.XXXXXXXXXXXXXXXXXX..",
"..XXXXXXXXXXX...XXXXX...XX............XX...........XXXXX............XXXXXXXXX...XXXXXXXXXXXXXXXXXX..",
"..XXXXXXXXXXXXXXXXXXXXXXXXXXXXXXXXXXXXXXXXXXXXXXXXXXXXXXXXXXXXXXXXXXXXXXXXXXXXXXXXXXXXXXXXXXXXXXXX..",
" ..XXXXXXXXXXXXXXXXXXXXXXXXXXXXXXXXXXXXXXXXXXXXXXXXXXXXXXXXXXXXXXXXXXXXXXXXXXXXXXXXXXXXXXXXXXXXXX.. ",
"  ..XXXXXXXXXXXXXXXXXXXXXXXXXXXXXXXXXXXXXXXXXXXXXXXXXXXXXXXXXXXXXXXXXXXXXXXXXXXXXXXXXXXXXXXXXXXX..  ",
"   ..XXXXXXXXXXXXXXXXXXXXXXXXXXXXXXXXXXXXXXXXXXXXXXXXXXXXXXXXXXXXXXXXXXXXXXXXXXXXXXXXXXXXXXXXXX..   ",
"    ..XXXXXXXXXXXXXXXXXXXXXXXXXXXXXXXXXXXXXXXXXXXXXXXXXXXXXXXXXXXXXXXXXXXXXXXXXXXXXXXXXXXXXXXX..    ",
"     ..XXXXXXXXXXXXXXXXXXXXXXXXXXXXXXXXXXXXXXXXXXXXXXXXXXXXXXXXXXXXXXXXXXXXXXXXXXXXXXXXXXXXXX..     ",
"      ..XXXXXXXXXXXXXXXXXXXXXXXXXXXXXXXXXXXXXXXXXXXXXXXXXXXXXXXXXXXXXXXXXXXXXXXXXXXXXXXXXXXX..      ",
"       ..XXXXXXXXXXXXXXXXXXXXXXXXXXXXXXXXXXXXXXXXXXXXXXXXXXXXXXXXXXXXXXXXXXXXXXXXXXXXXXXXXX..       ",
"        ..XXXXXXXXXXXXXXXXXXXXXXXXXXXXXXXXXXXXXXXXXXXXXXXXXXXXXXXXXXXXXXXXXXXXXXXXXXXXXXXX..        ",
"         ..................................................................................         ",
"          ................................................................................          "
};
