/* XPM */
static char *sat_xpm[] = {
/* columns rows colors chars-per-pixel */
"70 30 3 1 ",
"  c #000000",
". c #FFFFFF",
"X c None",
/* pixels */
"XXX                 XXX                  XXX                    XXXXXX",
"XXX ............... XX .................. XX .................. XXXXXX",
"XXX                 XX .                . XX         .          XXXXXX",
"   XXXXXXXXXXXXXXXXXXX . XXXXXXXXXXXXXX . XXXXXXXXXX . XXXXXXXXXXXXXXX",
" . XXXXXXXXXXXXXXXXXXX . XXXXXXXXXXXXXX . XXXXXXXXXX . XXXXXXXXXXXXXXX",
" . XXXXXXXXXXXXXXXXXXX . XXXXXXXXXXXXXX . XXXXXXXXXX . XXXXXXXXXXXXXXX",
" . XXXXXXXXXXXXXXXXXXX . XXXXXXXXXXXXXX . XXXXXXXXXX . XXXXXXXXXXXXXXX",
" . XXXXXXXXXXXXXXXXXXX . XXXXXXXXXXXXXX . XXXXXXXXXX . XXXXXXXXXXXXXXX",
" . XXXXXXXXXXXXXXXXXXX . XXXXXXXXXXXXXX . XXXXXXXXXX . XXXXXXXXXXXXXXX",
" . XXXXXXXXXXXXXXXXXXX . XXXXXXXXXXXXXX . XXXXXXXXXX . XXXXXXXXXXXXXXX",
" . XXXXXXXXXXXXXXXXXXX . XXXXXXXXXXXXXX . XXXXXXXXXX . XXXXXXXXXXXXXXX",
" . XXXXXXXXXXXXXXXXXXX . XXXXXXXXXXXXXX . XXXXXXXXXX . XXXXXXXXXXXXXXX",
" . XXXXXXXXXXXXXXXXXXX . XXXXXXXXXXXXXX . XXXXXXXXXX . XXXXXXXXXXXXXXX",
" . XXXXXXXXXXXXXXXXXXX .                . XXXXXXXXXX . XXXXXXXXXXXXXXX",
"   XXXXXXXXXXXXXXXXXXX .................. XXXXXXXXXX . XXXXXXXXXXXXXXX",
"XXX              XXXXX .                . XXXXXXXXXX . XXXXXXXXXXXXXXX",
"XXX ............ XXXXX . XXXXXXXXXXXXXX . XXXXXXXXXX . XXXXXXXXXXXXXXX",
"XXX              XXXXX . XXXXXXXXXXXXXX . XXXXXXXXXX . XXXXXXXXXXXXXXX",
"XXXXXXXXXXXXXXXXX   XX . XXXXXXXXXXXXXX . XXXXXXXXXX . XXXXXXXXXXXXXXX",
"XXXXXXXXXXXXXXXXX . XX . XXXXXXXXXXXXXX . XXXXXXXXXX . XXXXXXXXXXXXXXX",
"XXXXXXXXXXXXXXXXX . XX . XXXXXXXXXXXXXX . XXXXXXXXXX . XXXXXXXXXXXXXXX",
"XXXXXXXXXXXXXXXXX . XX . XXXXXXXXXXXXXX . XXXXXXXXXX . XXXXXXXXXXXXXXX",
"XXXXXXXXXXXXXXXXX . XX . XXXXXXXXXXXXXX . XXXXXXXXXX . XXXXXXXXXXXXXXX",
"XXXXXXXXXXXXXXXXX . XX . XXXXXXXXXXXXXX . XXXXXXXXXX . XXXXXXXXXXXXXXX",
"XXXXXXXXXXXXXXXXX . XX . XXXXXXXXXXXXXX . XXXXXXXXXX . XXXXXXXXXXXXXXX",
"XXXXXXXXXXXXXXXXX . XX . XXXXXXXXXXXXXX . XXXXXXXXXX . XXXXXXXXXXXXXXX",
"XXXXXXXXXXXXXXXXX   XX . XXXXXXXXXXXXXX . XXXXXXXXXX . XXXXXXXXXXXXXXX",
"                  XXXX . XXXXXXXXXXXXXX . XXXXXXXXXX . XXXXXXXXXXXXXXX",
" ................ XXXX . XXXXXXXXXXXXXX . XXXXXXXXXX . XXXXXXXXXXXXXXX",
"                  XXXX   XXXXXXXXXXXXXX   XXXXXXXXXX   XXXXXXXXXXXXXXX"
};
