/* XPM */
static char *slash_xpm[] = {
/* columns rows colors chars-per-pixel */
"40 70 3 1",
"  c None",
". c #FFFFFF",
"X c #FFFFFF",
/* pixels */
"                                        ",
"                                        ",
"                                        ",
"                                        ",
"                                        ",
"                           ...          ", 
"                           ...          ",
"                           ...          ",
"                          ...           ",
"                          ...           ",
"                          ...           ",
"                         ...            ",
"                         ...            ",
"                         ...            ",
"                        ...             ",
"                        ...             ",
"                        ...             ",
"                       ...              ",
"                       ...              ",
"                       ...              ",
"                      ...               ",
"                      ...               ",
"                      ...               ",
"                     ...                ",
"                     ...                ",
"                     ...                ",
"                    ...                 ",
"                    ...                 ",
"                    ...                 ",
"                   ...                  ",
"                   ...                  ",
"                   ...                  ",
"                  ...                   ",
"                  ...                   ",
"                  ...                   ",
"                 ...                    ",
"                 ...                    ",
"                 ...                    ",
"                ...                     ",
"                ...                     ",
"                ...                     ",
"               ...                      ",
"               ...                      ",
"               ...                      ",
"              ...                       ",
"              ...                       ",
"              ...                       ",
"             ...                        ",
"             ...                        ",
"             ...                        ",
"            ...                         ",
"            ...                         ",
"            ...                         ",
"           ...                          ",
"           ...                          ",
"           ...                          ",
"          ...                           ",
"          ...                           ",
"          ...                           ",
"         ...                            ",
"         ...                            ",
"         ...                            ",
"        ...                             ",
"        ...                             ",
"        ...                             ",
"       ...                              ",
"       ...                              ",
"       ...                              ",
"      ...                               ",
"      ...                               ",
"      ...                               ",
"     ...                                "
};
