/* XPM */
static char *slash_xpm[] = {
/* columns rows colors chars-per-pixel */
"50 70 3 1",
"  c None",
". c #00000000",
"X c #FFFFFFFF",
/* pixels */
"                                                  ",
"                    .                             ",
"                    .X.                           ",
"                    .XX.                          ",
"                    .XXX.                         ",
"                    .XXXX.                        ",
"                    .XXXXX.                       ",
"                    .XXXXXX.                      ",
"                    .XXXXXXX.                     ",
"                    .XXXXXXXX.                    ",
"                    .XXXXXXXXX.                   ",
"                    .XXXXXXXXXX.                  ",
"                    .XXXXXXXXXXX.                 ",
"                    .XXXXXXXXXXXX.                ",
"                    .XXXXXXXXXXXXX.               ",
"                    .XXXXXXXXXXXXXX.              ",
"                    .XXXXXXXXXXXXXXX.             ",
"                    .XXXXXXXXXXXXXXXX.            ",
"                    .XXXXXXXXXXXXXXXXX.           ",
"                    .XXXXXXXXXXXXXXXXXX.          ",
"                    .XXXXXXXXXXXXXXXXXXX.         ",
"                    .XXXXXXXXXXXXXXXXXXXX.        ",
"                    .XXXXXXXXXXXXXXXXXXXXX.       ",
"                    .XXXXXXXXXXXXXXXXXXXXXX.      ",
"                    .XXXXXXXXXXXXXXXXXXXXXXX.     ",
"                    .XXXXXXXXXXXXXXXXXXXXXXXX.    ",
"                    .XXXXXXXXXXXXXXXXXXXXXXXXX.   ",
"                    .XXXXXXXXXXXXXXXXXXXXXXXXXX.  ",
"                    .XXXXXXXXXXXXXXXXXXXXXXXXXXX. ",
"                    .XXXXXXXXXXXXXXXXXXXXXXXXXXX. ",
"                    .XXXXXXXXXXXXXXXXXXXXXXXXXX.  ",
"                    .XXXXXXXXXXXXXXXXXXXXXXXXX.   ",
"                    .XXXXXXXXXXXXXXXXXXXXXXXX.    ",
"                    .XXXXXXXXXXXXXXXXXXXXXXX.     ",
"                    .XXXXXXXXXXXXXXXXXXXXXX.      ",
"                    .XXXXXXXXXXXXXXXXXXXXX.       ",
"                    .XXXXXXXXXXXXXXXXXXXX.        ",
"                    .XXXXXXXXXXXXXXXXXXX.         ",
"                    .XXXXXXXXXXXXXXXXXX.          ",
"                    .XXXXXXXXXXXXXXXXX.           ",
"                    .XXXXXXXXXXXXXXXX.            ",
"                    .XXXXXXXXXXXXXXX.             ",
"                    .XXXXXXXXXXXXXX.              ",
"                    .XXXXXXXXXXXXX.               ",
"                    .XXXXXXXXXXXX.                ",
"                    .XXXXXXXXXXX.                 ",
"                    .XXXXXXXXXX.                  ",
"                    .XXXXXXXXX.                   ",
"                    .XXXXXXXX.                    ",
"                    .XXXXXXX.                     ",
"                    .XXXXXX.                      ",
"                    .XXXXX.                       ",
"                    .XXXX.                        ",
"                    .XXX.                         ",
"                    .XX.                          ",
"                    .X.                           ",
"                    ..                            ",
"                    .                             ",
"                                                  ",
"                                                  ",
"                                                  ",
"                                                  ",
"                                                  ",
"                                                  ",
"                                                  ",
"                                                  ",
"                                                  ",
"                                                  ",
"                                                  ",
"                                                  "
};
