/* XPM */
static char *start_xpm[] = {
/* columns rows colors chars-per-pixel */
"100 40 4 1 ",
"  c None",
". c #00000000",
"X c #FC0000",
"o c #FFFFFFFF",
/* pixels */
"          ................................................................................          ",
"         ..................................................................................         ",
"        ..XXXXXXXXXXXXXXXXXXXXXXXXXXXXXXXXXXXXXXXXXXXXXXXXXXXXXXXXXXXXXXXXXXXXXXXXXXXXXXXX..        ",
"       ..XXXXXXXXXXXXXXXXXXXXXXXXXXXXXXXXXXXXXXXXXXXXXXXXXXXXXXXXXXXXXXXXXXXXXXXXXXXXXXXXXX..       ",
"      ..XXXXXXXXXXXXXXXXXXXXXXXXXXXXXXXXXXXXXXXXXXXXXXXXXXXXXXXXXXXXXXXXXXXXXXXXXXXXXXXXXXXX..      ",
"     ..XXXXXXXXXXXXXXXXXXXXXXXXXXXXXXXXXXXXXXXXXXXXXXXXXXXXXXXXXXXXXXXXXXXXXXXXXXXXXXXXXXXXXX..     ",
"    ..XXXXXXXXXXXXXXXXXXXXXXXXXXXXXXXXXXXXXXXXXXXXXXXXXXXXXXXXXXXXXXXXXXXXXXXXXXXXXXXXXXXXXXXX..    ",
"   ..XXXXXXXXXXXXXXXXXXXXXXXXXXXXXXXXXXXXXXXXXXXXXXXXXXXXXXXXXXXXXXXXXXXXXXXXXXXXXXXXXXXXXXXXXX..   ",
"  ..XXXXXXXXXXXXXXXXXXXXXXXXXXXXXXXXXXXXXXXXXXXXXXXXXXXXXXXXXXXXXXXXXXXXXXXXXXXXXXXXXXXXXXXXXXXX..  ",
" ..XXXXXXXXXXXXXXXXXXXXXXXXXXXXXXXXXXXXXXXXXXXXXXXXXXXXXXXXXXXXXXXXXXXXXXXXXXXXXXXXXXXXXXXXXXXXXXX. ",
"..XXXXXXXXXXXXXX..........XX...............XXXXX.......XXXXX.........XXXXX...............XXXXXXXXX..",
"..XXXXXXXXXXXXXX.oooooooo.XX.ooooooooooooo.XXXXX.ooooo.XXXXX.ooooooo.XXXXX.ooooooooooooo.XXXXXXXXX..",
"..XXXXXXXXXXX.............XX.......o.......XXXXX.......XXXXX.o.......XXXXX.......o.......XXXXXXXXX..",
"..XXXXXXXXXXX.o.XXXXXXXXXXXXXXXXXX.o.XXXXXXXX...XXXXXXX...XX.o.XXXXXX...XXXXXXXX.o.XXXXXXXXXXXXXXX..",
"..XXXXXXXXXXX.o.XXXXXXXXXXXXXXXXXX.o.XXXXXXXX.o.XXXXXXX.o.XX.o.XXXXXX.o.XXXXXXXX.o.XXXXXXXXXXXXXXX..",
"..XXXXXXXXXXX.o.XXXXXXXXXXXXXXXXXX.o.XXXXXXXX.o.XXXXXXX.o.XX.o.XXXXXX.o.XXXXXXXX.o.XXXXXXXXXXXXXXX..",
"..XXXXXXXXXXX.o.XXXXXXXXXXXXXXXXXX.o.XXXXXXXX.o.XXXXXXX.o.XX.o.XXXXXX.o.XXXXXXXX.o.XXXXXXXXXXXXXXX..",
"..XXXXXXXXXXX...XXXXXXXXXXXXXXXXXX.o.XXXXXXXX.o.XXXXXXX.o.XX.o.XXXXXX.o.XXXXXXXX.o.XXXXXXXXXXXXXXX..",
"..XXXXXXXXXXXXXX.......XXXXXXXXXXX.o.XXXXXXXX.o.XXXXXXX.o.XX.o.XXXXXX...XXXXXXXX.o.XXXXXXXXXXXXXXX..",
"..XXXXXXXXXXXXXX.ooooo.XXXXXXXXXXX.o.XXXXXXXX.o.XXXXXXX.o.XX.o.......XXXXXXXXXXX.o.XXXXXXXXXXXXXXX..",
"..XXXXXXXXXXXXXX.......XXXXXXXXXXX.o.XXXXXXXX.o.XXXXXXX.o.XX.o.ooooo.XXXXXXXXXXX.o.XXXXXXXXXXXXXXX..",
"..XXXXXXXXXXXXXXXXXXXXX...XXXXXXXX.o.XXXXXXXX.o.........o.XX.o.....o.XXXXXXXXXXX.o.XXXXXXXXXXXXXXX..",
"..XXXXXXXXXXXXXXXXXXXXX.o.XXXXXXXX.o.XXXXXXXX.ooooooooooo.XX.o.XXX.o.XXXXXXXXXXX.o.XXXXXXXXXXXXXXX..",
"..XXXXXXXXXXXXXXXXXXXXX.o.XXXXXXXX.o.XXXXXXXX.o.........o.XX.o.XXX.o.XXXXXXXXXXX.o.XXXXXXXXXXXXXXX..",
"..XXXXXXXXXXXXXXXXXXXXX.o.XXXXXXXX.o.XXXXXXXX.o.XXXXXXX.o.XX.o.XXX......XXXXXXXX.o.XXXXXXXXXXXXXXX..",
"..XXXXXXXXXXXXXXXXXXXXX...XXXXXXXX.o.XXXXXXXX.o.XXXXXXX.o.XX.o.XXXXXX.o.XXXXXXXX.o.XXXXXXXXXXXXXXX..",
"..XXXXXXXXXXX..........XXXXXXXXXXX.o.XXXXXXXX.o.XXXXXXX.o.XX.o.XXXXXX.o.XXXXXXXX.o.XXXXXXXXXXXXXXX..",
"..XXXXXXXXXXX.oooooooo.XXXXXXXXXXX.o.XXXXXXXX.o.XXXXXXX.o.XX.o.XXXXXX.o.XXXXXXXX.o.XXXXXXXXXXXXXXX..",
"..XXXXXXXXXXX..........XXXXXXXXXXX...XXXXXXXX...XXXXXXX...XX...XXXXXX...XXXXXXXX...XXXXXXXXXXXXXXX..",
"..XXXXXXXXXXXXXXXXXXXXXXXXXXXXXXXXXXXXXXXXXXXXXXXXXXXXXXXXXXXXXXXXXXXXXXXXXXXXXXXXXXXXXXXXXXXXXXXX..",
" ..XXXXXXXXXXXXXXXXXXXXXXXXXXXXXXXXXXXXXXXXXXXXXXXXXXXXXXXXXXXXXXXXXXXXXXXXXXXXXXXXXXXXXXXXXXXXXX.. ",
"  ..XXXXXXXXXXXXXXXXXXXXXXXXXXXXXXXXXXXXXXXXXXXXXXXXXXXXXXXXXXXXXXXXXXXXXXXXXXXXXXXXXXXXXXXXXXXX..  ",
"   ..XXXXXXXXXXXXXXXXXXXXXXXXXXXXXXXXXXXXXXXXXXXXXXXXXXXXXXXXXXXXXXXXXXXXXXXXXXXXXXXXXXXXXXXXXX..   ",
"    ..XXXXXXXXXXXXXXXXXXXXXXXXXXXXXXXXXXXXXXXXXXXXXXXXXXXXXXXXXXXXXXXXXXXXXXXXXXXXXXXXXXXXXXXX..    ",
"     ..XXXXXXXXXXXXXXXXXXXXXXXXXXXXXXXXXXXXXXXXXXXXXXXXXXXXXXXXXXXXXXXXXXXXXXXXXXXXXXXXXXXXXX..     ",
"      ..XXXXXXXXXXXXXXXXXXXXXXXXXXXXXXXXXXXXXXXXXXXXXXXXXXXXXXXXXXXXXXXXXXXXXXXXXXXXXXXXXXXX..      ",
"       ..XXXXXXXXXXXXXXXXXXXXXXXXXXXXXXXXXXXXXXXXXXXXXXXXXXXXXXXXXXXXXXXXXXXXXXXXXXXXXXXXXX..       ",
"        ..XXXXXXXXXXXXXXXXXXXXXXXXXXXXXXXXXXXXXXXXXXXXXXXXXXXXXXXXXXXXXXXXXXXXXXXXXXXXXXXX..        ",
"         ..................................................................................         ",
"          ................................................................................          "
};
