/* XPM */
static char *sun_xpm[] = {
/* columns rows colors chars-per-pixel */
"70 30 3 1 ",
"  c None",
". c #000000",
"X c #FFFFFF",
/* pixels */
"   .................  ...              ...  ....              ...     ",
"   .XXXXXXXXXXXXXXX.  .X.              .X.  .XX..             .X.     ",
"   .................  .X.              .X.  .X.X..            .X.     ",
"...                   .X.              .X.  .X..X.            .X.     ",
".X.                   .X.              .X.  .X..X..           .X.     ",
".X.                   .X.              .X.  .X...X..          .X.     ",
".X.                   .X.              .X.  .X. .XX.          .X.     ",
".X.                   .X.              .X.  .X. .XX..         .X.     ",
".X.                   .X.              .X.  .X.  .XX.         .X.     ",
".X.                   .X.              .X.  .X.  ..X.         .X.     ",
".X.                   .X.              .X.  .X.   .XX.        .X.     ",
".X.                   .X.              .X.  .X.   ..X.        .X.     ",
".X.                   .X.              .X.  .X.    .X..       .X.     ",
".X.                   .X.              .X.  .X.    .XX.       .X.     ",
"...                   .X.              .X.  .X.     .X..      .X.     ",
"   ..............     .X.              .X.  .X.     ..X.      .X.     ",
"   .XXXXXXXXXXXX.     .X.              .X.  .X.      .X..     .X.     ",
"   ..............     .X.              .X.  .X.      ..X.     .X.     ",
"                 ...  .X.              .X.  .X.       .XX.    .X.     ",
"                 .X.  .X.              .X.  .X.        .X..   .X.     ",
"                 .X.  .X.              .X.  .X.        .XX..  .X.     ",
"                 .X.  .X.              .X.  .X.        ..XX.  .X.     ",
"                 .X.  .X.              .X.  .X.         ..XX. .X.     ",
"                 .X.  .X.              .X.  .X.          .XX...X.     ",
"                 .X.  .X.              .X.  .X.           .XX..X.     ",
"                 .X.  .X.              .X.  .X.           ..XXXX.     ",
"                 ...  ...              ...  .X.            ..XXX.     ",
"..................       ...............    .X.             ..XX.     ",
".XXXXXXXXXXXXXXXX.       .XXXXXXXXXXXXX.    .X.              .XX.     ",
"..................       ...............    ...              ....     "
};
