/* XPM */
static char *thu_xpm[] = {
/* columns rows colors chars-per-pixel */
"70 30 4 1 ",
"  c None",
". c #000000",
"X c #FFFFFF",
"o c #FFFFFF",
/* pixels */
"....................  ...              ...  ...              ...      ",
".oooooooooooooooooo.  .o.              .o.  .o.              .o.      ",
".........o..........  .o.              .o.  .o.              .o.      ",
"        .o.           .o.              .X.  .o.              .o.      ",
"        .o.           .o.              .o.  .o.              .o.      ",
"        .o.           .o.              .o.  .o.              .o.      ",
"        .o.           .o.              .o.  .o.              .o.      ",
"        .o.           .o.              .o.  .o.              .o.      ",
"        .o.           .o.              .o.  .o.              .o.      ",
"        .o.           .o.              .o.  .o.              .o.      ",
"        .o.           .o.              .o.  .o.              .o.      ",
"        .o.           .o.              .o.  .o.              .o.      ",
"        .o.           .o.              .o.  .o.              .o.      ",
"        .o.           .o................o.  .o.              .o.      ",
"        .o.           .oooooooooooooooooo.  .o.              .o.      ",
"        .o.           .o................o.  .o.              .o.      ",
"        .o.           .o.              .o.  .o.              .o.      ",
"        .o.           .o.              .o.  .o.              .o.      ",
"        .o.           .o.              .o.  .o.              .o.      ",
"        .o.           .o.              .o.  .o.              .o.      ",
"        .o.           .X.              .o.  .o.              .o.      ",
"        .o.           .o.              .o.  .o.              .o.      ",
"        .o.           .o.              .o.  .o.              .o.      ",
"        .o.           .o.              .X.  .o.              .o.      ",
"        .o.           .o.              .o.  .o.              .o.      ",
"        .o.           .o.              .o.  .o.              .o.      ",
"        .o.           .o.              .o.  ...              ...      ",
"        .o.           .o.              .o.     ..............         ",
"        .o.           .o.              .o.     .oooooooooooo.         ",
"        ...           ...              ...     ..............         "
};
