/* XPM */
static char *tue_xpm[] = {
/* columns rows colors chars-per-pixel */
"70 30 3 1 ",
"  c None",
". c #000000",
"X c #FFFFFF",
/* pixels */
"....................  ...              ...  ..................        ",
".XXXXXXXXXXXXXXXXXX.  .X.              .X.  .XXXXXXXXXXXXXXXX.        ",
".........X..........  .X.              .X.  .X................        ",
"        .X.           .X.              .X.  .X.                       ",
"        .X.           .X.              .X.  .X.                       ",
"        .X.           .X.              .X.  .X.                       ",
"        .X.           .X.              .X.  .X.                       ",
"        .X.           .X.              .X.  .X.                       ",
"        .X.           .X.              .X.  .X.                       ",
"        .X.           .X.              .X.  .X.                       ",
"        .X.           .X.              .X.  .X.                       ",
"        .X.           .X.              .X.  .X.                       ",
"        .X.           .X.              .X.  .X.                       ",
"        .X.           .X.              .X.  .X.                       ",
"        .X.           .X.              .X.  .X................        ",
"        .X.           .X.              .X.  .XXXXXXXXXXXXXXXX.        ",
"        .X.           .X.              .X.  .X................        ",
"        .X.           .X.              .X.  .X.                       ",
"        .X.           .X.              .X.  .X.                       ",
"        .X.           .X.              .X.  .X.                       ",
"        .X.           .X.              .X.  .X.                       ",
"        .X.           .X.              .X.  .X.                       ",
"        .X.           .X.              .X.  .X.                       ",
"        .X.           .X.              .X.  .X.                       ",
"        .X.           .X.              .X.  .X.                       ",
"        .X.           .X.              .X.  .X.                       ",
"        .X.           ...              ...  .X.                       ",
"        .X.              ..............     .X................        ",
"        .X.              .XXXXXXXXXXXX.     .XXXXXXXXXXXXXXXX.        ",
"        ...              ..............     ..................        "
};
