/* XPM */
static char *wed_xpm[] = {
/* columns rows colors chars-per-pixel */
"70 30 3 1 ",
"  c #000000",
". c #FFFFFF",
"X c None",
/* pixels */
"   XXXXXXXXXXXXXXX   XX                    XXXXXXXXXXXXXXXXXXX   XXXXX",
" . XXXXXXXXXXXXXXX . XX .................. XXXXXXXXXXXXXXXXXXX . XXXXX",
" . XXXXXXXXXXXXXXX . XX .                  XXXXXXXXXXXXXXXXXXX . XXXXX",
" . XXXXXXXXXXXXXXX . XX . XXXXXXXXXXXXXXXXXXXXXXXXXXXXXXXXXXXX . XXXXX",
" . XXXXXXXXXXXXXXX . XX . XXXXXXXXXXXXXXXXXXXXXXXXXXXXXXXXXXXX . XXXXX",
" . XXXXXXXXXXXXXXX . XX . XXXXXXXXXXXXXXXXXXXXXXXXXXXXXXXXXXXX . XXXXX",
" . XXXXXXXXXXXXXXX . XX . XXXXXXXXXXXXXXXXXXXXXXXXXXXXXXXXXXXX . XXXXX",
" . XXXXXXXXXXXXXXX . XX . XXXXXXXXXXXXXXXXXXXXXXXXXXXXXXXXXXXX . XXXXX",
" . XXXXXXXXXXXXXXX . XX . XXXXXXXXXXXXXXXXXXXXXXXXXXXXXXXXXXXX . XXXXX",
" . XXXXXXXXXXXXXXX . XX . XXXXXXXXXXXXXXXXXXXXXXXXXXXXXXXXXXXX . XXXXX",
" . XXXXXXXXXXXXXXX . XX . XXXXXXXXXXXXXXXXXXXXXXXXXXXXXXXXXXXX . XXXXX",
" . XXXXXXXXXXXXXXX . XX . XXXXXXXXXXXXXXXXXXXXXXXXXXXXXXXXXXXX . XXXXX",
" . XXXXXXXXXXXXXXX . XX . XXXXXXXXXXXXXXXXXXXXXXXXXXXXXXXXXXXX . XXXXX",
" . XXXXXXXXXXXXXXX . XX .                XXXX                  . XXXXX",
" . XXXXXXXXXXXXXXX . XX ................ XXXX .................. XXXXX",
" . XXXXXXXXXXXXXXX . XX .                XXXX .                . XXXXX",
" . XXXXXXXXXXXXXXX . XX . XXXXXXXXXXXXXXXXXXX . XXXXXXXXXXXXXX . XXXXX",
" . XXXXXXX XXXXXXX . XX . XXXXXXXXXXXXXXXXXXX . XXXXXXXXXXXXXX . XXXXX",
" . XXXXXX . XXXXXX . XX . XXXXXXXXXXXXXXXXXXX . XXXXXXXXXXXXXX . XXXXX",
" . XXXXX ... XXXXX . XX . XXXXXXXXXXXXXXXXXXX . XXXXXXXXXXXXXX . XXXXX",
" . XXXX .. .. XXXX . XX . XXXXXXXXXXXXXXXXXXX . XXXXXXXXXXXXXX . XXXXX",
" . XXX .. X .. XXX . XX . XXXXXXXXXXXXXXXXXXX . XXXXXXXXXXXXXX . XXXXX",
" . XX .. XXX .. XX . XX . XXXXXXXXXXXXXXXXXXX . XXXXXXXXXXXXXX . XXXXX",
" . X .. XXXXX .. X . XX . XXXXXXXXXXXXXXXXXXX . XXXXXXXXXXXXXX . XXXXX",
" .  .. XXXXXXX ..  . XX . XXXXXXXXXXXXXXXXXXX . XXXXXXXXXXXXXX . XXXXX",
" . .. XXXXXXXXX .. . XX . XXXXXXXXXXXXXXXXXXX . XXXXXXXXXXXXXX . XXXXX",
" ... XXXXXXXXXXX ... XX . XXXXXXXXXXXXXXXXXXX . XXXXXXXXXXXXXX . XXXXX",
" .. XXXXXXXXXXXXX .. XX .                  XX .                . XXXXX",
" . XXXXXXXXXXXXXXX . XX .................. XX .................. XXXXX",
"  XXXXXXXXXXXXXXXX   XX                    XX                    XXXXX"
};
